G04 #@! TF.GenerationSoftware,KiCad,Pcbnew,(5.99.0-276-g47d7fea9b)*
G04 #@! TF.CreationDate,2019-10-29T18:49:48-07:00*
G04 #@! TF.ProjectId,frontpanel_pcb,66726f6e-7470-4616-9e65-6c5f7063622e,rev?*
G04 #@! TF.SameCoordinates,Original*
G04 #@! TF.FileFunction,Copper,L1,Top*
G04 #@! TF.FilePolarity,Positive*
%FSLAX46Y46*%
G04 Gerber Fmt 4.6, Leading zero omitted, Abs format (unit mm)*
G04 Created by KiCad (PCBNEW (5.99.0-276-g47d7fea9b)) date 2019-10-29 18:49:48*
%MOMM*%
%LPD*%
G04 APERTURE LIST*
%ADD10O,1.100000X2.000000*%
%ADD11C,1.800000*%
%ADD12R,1.800000X1.800000*%
%ADD13O,1.700000X1.700000*%
%ADD14R,1.700000X1.700000*%
%ADD15C,1.200000*%
%ADD16C,2.000000*%
%ADD17C,0.300000*%
G04 APERTURE END LIST*
D10*
X184330000Y-84780000D03*
X185600000Y-84780000D03*
X186870000Y-84780000D03*
X188140000Y-84780000D03*
X189410000Y-84780000D03*
X190680000Y-84780000D03*
D11*
X100870000Y-62600000D03*
X103410000Y-62600000D03*
X105950000Y-62600000D03*
X108490000Y-62600000D03*
X111030000Y-62600000D03*
X113570000Y-62600000D03*
X116110000Y-62600000D03*
X118650000Y-62600000D03*
X121190000Y-62600000D03*
X123730000Y-62600000D03*
X126270000Y-62600000D03*
X128810000Y-62600000D03*
X131350000Y-62600000D03*
X133890000Y-62600000D03*
X136430000Y-62600000D03*
X138970000Y-62600000D03*
X141510000Y-62600000D03*
X144050000Y-62600000D03*
X146590000Y-62600000D03*
D12*
X149130000Y-62600000D03*
G04 #@! TA.AperFunction,SMDPad,CuDef*
G36*
X190319529Y-91898554D02*
G01*
X190398607Y-91951393D01*
X190451446Y-92030471D01*
X190470000Y-92123750D01*
X190470000Y-92611250D01*
X190451446Y-92704529D01*
X190398607Y-92783607D01*
X190319529Y-92836446D01*
X190226250Y-92855000D01*
X189313750Y-92855000D01*
X189220471Y-92836446D01*
X189141393Y-92783607D01*
X189088554Y-92704529D01*
X189070000Y-92611250D01*
X189070000Y-92123750D01*
X189088554Y-92030471D01*
X189141393Y-91951393D01*
X189220471Y-91898554D01*
X189313750Y-91880000D01*
X190226250Y-91880000D01*
X190319529Y-91898554D01*
G37*
G04 #@! TD.AperFunction*
G04 #@! TA.AperFunction,SMDPad,CuDef*
G36*
X190319529Y-90023554D02*
G01*
X190398607Y-90076393D01*
X190451446Y-90155471D01*
X190470000Y-90248750D01*
X190470000Y-90736250D01*
X190451446Y-90829529D01*
X190398607Y-90908607D01*
X190319529Y-90961446D01*
X190226250Y-90980000D01*
X189313750Y-90980000D01*
X189220471Y-90961446D01*
X189141393Y-90908607D01*
X189088554Y-90829529D01*
X189070000Y-90736250D01*
X189070000Y-90248750D01*
X189088554Y-90155471D01*
X189141393Y-90076393D01*
X189220471Y-90023554D01*
X189313750Y-90005000D01*
X190226250Y-90005000D01*
X190319529Y-90023554D01*
G37*
G04 #@! TD.AperFunction*
G04 #@! TA.AperFunction,SMDPad,CuDef*
G36*
X187779529Y-91898554D02*
G01*
X187858607Y-91951393D01*
X187911446Y-92030471D01*
X187930000Y-92123750D01*
X187930000Y-92611250D01*
X187911446Y-92704529D01*
X187858607Y-92783607D01*
X187779529Y-92836446D01*
X187686250Y-92855000D01*
X186773750Y-92855000D01*
X186680471Y-92836446D01*
X186601393Y-92783607D01*
X186548554Y-92704529D01*
X186530000Y-92611250D01*
X186530000Y-92123750D01*
X186548554Y-92030471D01*
X186601393Y-91951393D01*
X186680471Y-91898554D01*
X186773750Y-91880000D01*
X187686250Y-91880000D01*
X187779529Y-91898554D01*
G37*
G04 #@! TD.AperFunction*
G04 #@! TA.AperFunction,SMDPad,CuDef*
G36*
X187779529Y-90023554D02*
G01*
X187858607Y-90076393D01*
X187911446Y-90155471D01*
X187930000Y-90248750D01*
X187930000Y-90736250D01*
X187911446Y-90829529D01*
X187858607Y-90908607D01*
X187779529Y-90961446D01*
X187686250Y-90980000D01*
X186773750Y-90980000D01*
X186680471Y-90961446D01*
X186601393Y-90908607D01*
X186548554Y-90829529D01*
X186530000Y-90736250D01*
X186530000Y-90248750D01*
X186548554Y-90155471D01*
X186601393Y-90076393D01*
X186680471Y-90023554D01*
X186773750Y-90005000D01*
X187686250Y-90005000D01*
X187779529Y-90023554D01*
G37*
G04 #@! TD.AperFunction*
G04 #@! TA.AperFunction,SMDPad,CuDef*
G36*
X185239529Y-90023554D02*
G01*
X185318607Y-90076393D01*
X185371446Y-90155471D01*
X185390000Y-90248750D01*
X185390000Y-90736250D01*
X185371446Y-90829529D01*
X185318607Y-90908607D01*
X185239529Y-90961446D01*
X185146250Y-90980000D01*
X184233750Y-90980000D01*
X184140471Y-90961446D01*
X184061393Y-90908607D01*
X184008554Y-90829529D01*
X183990000Y-90736250D01*
X183990000Y-90248750D01*
X184008554Y-90155471D01*
X184061393Y-90076393D01*
X184140471Y-90023554D01*
X184233750Y-90005000D01*
X185146250Y-90005000D01*
X185239529Y-90023554D01*
G37*
G04 #@! TD.AperFunction*
G04 #@! TA.AperFunction,SMDPad,CuDef*
G36*
X185239529Y-91898554D02*
G01*
X185318607Y-91951393D01*
X185371446Y-92030471D01*
X185390000Y-92123750D01*
X185390000Y-92611250D01*
X185371446Y-92704529D01*
X185318607Y-92783607D01*
X185239529Y-92836446D01*
X185146250Y-92855000D01*
X184233750Y-92855000D01*
X184140471Y-92836446D01*
X184061393Y-92783607D01*
X184008554Y-92704529D01*
X183990000Y-92611250D01*
X183990000Y-92123750D01*
X184008554Y-92030471D01*
X184061393Y-91951393D01*
X184140471Y-91898554D01*
X184233750Y-91880000D01*
X185146250Y-91880000D01*
X185239529Y-91898554D01*
G37*
G04 #@! TD.AperFunction*
D13*
X42450000Y-73650000D03*
X44990000Y-73650000D03*
X42450000Y-76190000D03*
X44990000Y-76190000D03*
X42450000Y-78730000D03*
X44990000Y-78730000D03*
X42450000Y-81270000D03*
X44990000Y-81270000D03*
X42450000Y-83810000D03*
X44990000Y-83810000D03*
X42450000Y-86350000D03*
D14*
X44990000Y-86350000D03*
D11*
X72770000Y-78530000D03*
D12*
X70230000Y-78530000D03*
D11*
X54770000Y-78530000D03*
D12*
X52230000Y-78530000D03*
D15*
X47530000Y-82921000D03*
X45879000Y-89017000D03*
X55000000Y-86000000D03*
X62008000Y-79111000D03*
X103410000Y-64760000D03*
X136430000Y-64633000D03*
X121190000Y-65141000D03*
X107220000Y-89271000D03*
X107220000Y-66030000D03*
X149257000Y-89144000D03*
X149257000Y-68570000D03*
X144050000Y-66030000D03*
X191421000Y-86858000D03*
X178213000Y-82159000D03*
X182658000Y-88636000D03*
X189770000Y-88636000D03*
X187230000Y-88636000D03*
X184690000Y-88636000D03*
X47530000Y-73650000D03*
D16*
X47530000Y-73650000D02*
X47530000Y-82921000D01*
D17*
X45879000Y-89017000D02*
X51983000Y-89017000D01*
X51983000Y-89017000D02*
X54400001Y-86599999D01*
X54400001Y-86599999D02*
X55000000Y-86000000D01*
X136430000Y-62600000D02*
X136430000Y-64633000D01*
X107220000Y-66030000D02*
X107220000Y-89271000D01*
D16*
X149257000Y-68570000D02*
X149257000Y-89144000D01*
D17*
X182658000Y-89484528D02*
X182658000Y-88636000D01*
X184690000Y-93970000D02*
X182658000Y-91938000D01*
X182658000Y-91938000D02*
X182658000Y-89484528D01*
X189770000Y-90492500D02*
X189770000Y-88636000D01*
X187230000Y-90492500D02*
X187230000Y-88636000D01*
X184690000Y-90492500D02*
X184690000Y-88636000D01*
X184690000Y-93970000D02*
X187230000Y-93970000D01*
X184690000Y-92367500D02*
X184690000Y-93970000D01*
X187230000Y-93970000D02*
X189516000Y-93970000D01*
X187230000Y-92855000D02*
X187230000Y-93970000D01*
X187230000Y-92367500D02*
X187230000Y-92855000D01*
X189516000Y-93970000D02*
X189770000Y-93716000D01*
X189770000Y-93716000D02*
X189770000Y-92367500D01*
G36*
X199980787Y-60385789D02*
G01*
X200358872Y-60404612D01*
X200714183Y-60458031D01*
X201062442Y-60546478D01*
X201400199Y-60669077D01*
X201724097Y-60824612D01*
X202030946Y-61011546D01*
X202317721Y-61228038D01*
X202581574Y-61471943D01*
X202819890Y-61740835D01*
X203030332Y-62032085D01*
X203210797Y-62342779D01*
X203359517Y-62669872D01*
X203475015Y-63010120D01*
X203556148Y-63360148D01*
X203602375Y-63718525D01*
X203614029Y-64015161D01*
X203619001Y-64039167D01*
X203619000Y-95945830D01*
X203614211Y-95980787D01*
X203595388Y-96358872D01*
X203541968Y-96714184D01*
X203453524Y-97062440D01*
X203330928Y-97400186D01*
X203175388Y-97724098D01*
X202988449Y-98030956D01*
X202771964Y-98317720D01*
X202528057Y-98581574D01*
X202259160Y-98819893D01*
X201967919Y-99030329D01*
X201657222Y-99210797D01*
X201330126Y-99359518D01*
X200989882Y-99475015D01*
X200639851Y-99556148D01*
X200281477Y-99602375D01*
X199984837Y-99614029D01*
X199960836Y-99619000D01*
X43054170Y-99619000D01*
X43019213Y-99614211D01*
X42641128Y-99595388D01*
X42285816Y-99541968D01*
X41937560Y-99453524D01*
X41599814Y-99330928D01*
X41275902Y-99175388D01*
X40969044Y-98988449D01*
X40682280Y-98771964D01*
X40418426Y-98528057D01*
X40180107Y-98259160D01*
X39969671Y-97967919D01*
X39789203Y-97657222D01*
X39640482Y-97330126D01*
X39524985Y-96989882D01*
X39443852Y-96639851D01*
X39397625Y-96281477D01*
X39385971Y-95984837D01*
X39381000Y-95960836D01*
X39381000Y-95944909D01*
X47745638Y-95944909D01*
X47758155Y-96243543D01*
X47810057Y-96537901D01*
X47900436Y-96822809D01*
X48027701Y-97093262D01*
X48189618Y-97344508D01*
X48383341Y-97572132D01*
X48605466Y-97772135D01*
X48852095Y-97941003D01*
X49118888Y-98075771D01*
X49401159Y-98174068D01*
X49693960Y-98234172D01*
X49992128Y-98255021D01*
X50290441Y-98236253D01*
X50583641Y-98178198D01*
X50866604Y-98081869D01*
X51134328Y-97948970D01*
X51382124Y-97781830D01*
X51605645Y-97583379D01*
X51800950Y-97357115D01*
X51964620Y-97107002D01*
X52093768Y-96837448D01*
X52115636Y-96770145D01*
X84350000Y-96770145D01*
X84350000Y-97029855D01*
X84390630Y-97286377D01*
X84470885Y-97533381D01*
X84588794Y-97764787D01*
X84741452Y-97974904D01*
X84925096Y-98158548D01*
X85135213Y-98311206D01*
X85366619Y-98429115D01*
X85613623Y-98509370D01*
X85870145Y-98550000D01*
X86129855Y-98550000D01*
X86386377Y-98509370D01*
X86633381Y-98429115D01*
X86864787Y-98311206D01*
X87074904Y-98158548D01*
X87258548Y-97974904D01*
X87411206Y-97764787D01*
X87529115Y-97533381D01*
X87609370Y-97286377D01*
X87650000Y-97029855D01*
X87650000Y-96770145D01*
X162350000Y-96770145D01*
X162350000Y-97029855D01*
X162390630Y-97286377D01*
X162470885Y-97533381D01*
X162588794Y-97764787D01*
X162741452Y-97974904D01*
X162925096Y-98158548D01*
X163135213Y-98311206D01*
X163366619Y-98429115D01*
X163613623Y-98509370D01*
X163870145Y-98550000D01*
X164129855Y-98550000D01*
X164386377Y-98509370D01*
X164633381Y-98429115D01*
X164864787Y-98311206D01*
X165074904Y-98158548D01*
X165258548Y-97974904D01*
X165411206Y-97764787D01*
X165529115Y-97533381D01*
X165609370Y-97286377D01*
X165650000Y-97029855D01*
X165650000Y-96770145D01*
X165609370Y-96513623D01*
X165529115Y-96266619D01*
X165411206Y-96035213D01*
X165345597Y-95944909D01*
X197745638Y-95944909D01*
X197758155Y-96243543D01*
X197810057Y-96537901D01*
X197900436Y-96822809D01*
X198027701Y-97093262D01*
X198189618Y-97344508D01*
X198383341Y-97572132D01*
X198605466Y-97772135D01*
X198852095Y-97941003D01*
X199118888Y-98075771D01*
X199401159Y-98174068D01*
X199693960Y-98234172D01*
X199992128Y-98255021D01*
X200290441Y-98236253D01*
X200583641Y-98178198D01*
X200866604Y-98081869D01*
X201134328Y-97948970D01*
X201382124Y-97781830D01*
X201605645Y-97583379D01*
X201800950Y-97357115D01*
X201964620Y-97107002D01*
X202093768Y-96837448D01*
X202186133Y-96553177D01*
X202240089Y-96259191D01*
X202250077Y-95850546D01*
X202210546Y-95554273D01*
X202132180Y-95265838D01*
X202016349Y-94990288D01*
X201865094Y-94732478D01*
X201681075Y-94496946D01*
X201467519Y-94287816D01*
X201228180Y-94108769D01*
X200967269Y-93962950D01*
X200689350Y-93852914D01*
X200399330Y-93780604D01*
X200102296Y-93747285D01*
X199803463Y-93753546D01*
X199508079Y-93799274D01*
X199221339Y-93883665D01*
X198948281Y-94005239D01*
X198693702Y-94161857D01*
X198462066Y-94350774D01*
X198257461Y-94568658D01*
X198083461Y-94811697D01*
X197943138Y-95075608D01*
X197838948Y-95355764D01*
X197772728Y-95647232D01*
X197745638Y-95944909D01*
X165345597Y-95944909D01*
X165258548Y-95825096D01*
X165074904Y-95641452D01*
X164864787Y-95488794D01*
X164633381Y-95370885D01*
X164386377Y-95290630D01*
X164129855Y-95250000D01*
X163870145Y-95250000D01*
X163613623Y-95290630D01*
X163366619Y-95370885D01*
X163135213Y-95488794D01*
X162925096Y-95641452D01*
X162741452Y-95825096D01*
X162588794Y-96035213D01*
X162470885Y-96266619D01*
X162390630Y-96513623D01*
X162350000Y-96770145D01*
X87650000Y-96770145D01*
X87609370Y-96513623D01*
X87529115Y-96266619D01*
X87411206Y-96035213D01*
X87258548Y-95825096D01*
X87074904Y-95641452D01*
X86864787Y-95488794D01*
X86633381Y-95370885D01*
X86386377Y-95290630D01*
X86129855Y-95250000D01*
X85870145Y-95250000D01*
X85613623Y-95290630D01*
X85366619Y-95370885D01*
X85135213Y-95488794D01*
X84925096Y-95641452D01*
X84741452Y-95825096D01*
X84588794Y-96035213D01*
X84470885Y-96266619D01*
X84390630Y-96513623D01*
X84350000Y-96770145D01*
X52115636Y-96770145D01*
X52186133Y-96553177D01*
X52240089Y-96259191D01*
X52250077Y-95850546D01*
X52210546Y-95554273D01*
X52132180Y-95265838D01*
X52016349Y-94990288D01*
X51865094Y-94732478D01*
X51681075Y-94496946D01*
X51467519Y-94287816D01*
X51228180Y-94108769D01*
X50967269Y-93962950D01*
X50689350Y-93852914D01*
X50399330Y-93780604D01*
X50102296Y-93747285D01*
X49803463Y-93753546D01*
X49508079Y-93799274D01*
X49221339Y-93883665D01*
X48948281Y-94005239D01*
X48693702Y-94161857D01*
X48462066Y-94350774D01*
X48257461Y-94568658D01*
X48083461Y-94811697D01*
X47943138Y-95075608D01*
X47838948Y-95355764D01*
X47772728Y-95647232D01*
X47745638Y-95944909D01*
X39381000Y-95944909D01*
X39381000Y-89127541D01*
X44877739Y-89127541D01*
X44933008Y-89363183D01*
X45042893Y-89578841D01*
X45201045Y-89762063D01*
X45398336Y-89902270D01*
X45623381Y-89991372D01*
X45863174Y-90024220D01*
X46103892Y-89998920D01*
X46331620Y-89916932D01*
X46533217Y-89782991D01*
X46731830Y-89567000D01*
X51924288Y-89567000D01*
X51956734Y-89573985D01*
X52015749Y-89567000D01*
X52028690Y-89567000D01*
X52060549Y-89561697D01*
X52138567Y-89552464D01*
X52147396Y-89547243D01*
X52163617Y-89544543D01*
X52324760Y-89457594D01*
X52380234Y-89397583D01*
X54796330Y-86981488D01*
X54984174Y-87007220D01*
X55224892Y-86981920D01*
X55452620Y-86899932D01*
X55654217Y-86765991D01*
X55818047Y-86587827D01*
X55934650Y-86375727D01*
X55997294Y-86141936D01*
X56000048Y-85878980D01*
X55942314Y-85643928D01*
X55830180Y-85429435D01*
X55670115Y-85247878D01*
X55471369Y-85109746D01*
X55245401Y-85023005D01*
X55005276Y-84992670D01*
X54764838Y-85020490D01*
X54537982Y-85104857D01*
X54337797Y-85240901D01*
X54175841Y-85420772D01*
X54061466Y-85634081D01*
X54001274Y-85868514D01*
X53998739Y-86110543D01*
X54020188Y-86201994D01*
X51755183Y-88467000D01*
X46727310Y-88467000D01*
X46549115Y-88264878D01*
X46350369Y-88126746D01*
X46124401Y-88040005D01*
X45884276Y-88009670D01*
X45643838Y-88037490D01*
X45416982Y-88121857D01*
X45216797Y-88257901D01*
X45054841Y-88437772D01*
X44940466Y-88651081D01*
X44880274Y-88885514D01*
X44877739Y-89127541D01*
X39381000Y-89127541D01*
X39381000Y-73900000D01*
X41123256Y-73900000D01*
X41141019Y-74000738D01*
X41221811Y-74222712D01*
X41339922Y-74427287D01*
X41491760Y-74608240D01*
X41672715Y-74760080D01*
X42037935Y-74970937D01*
X41685973Y-75194300D01*
X41521727Y-75345333D01*
X41386817Y-75523069D01*
X41285518Y-75721880D01*
X41221024Y-75935492D01*
X41195378Y-76157149D01*
X41209389Y-76379840D01*
X41262614Y-76596531D01*
X41353370Y-76800376D01*
X41478792Y-76984928D01*
X41634908Y-77144348D01*
X41816793Y-77273606D01*
X42012707Y-77365796D01*
X42007613Y-77560364D01*
X41874373Y-77614738D01*
X41685973Y-77734301D01*
X41521727Y-77885333D01*
X41386817Y-78063069D01*
X41285518Y-78261880D01*
X41221024Y-78475492D01*
X41195378Y-78697149D01*
X41209389Y-78919840D01*
X41262614Y-79136531D01*
X41353370Y-79340376D01*
X41478792Y-79524928D01*
X41634908Y-79684348D01*
X41816789Y-79813603D01*
X41891654Y-79848824D01*
X41899219Y-80029149D01*
X41672713Y-80159922D01*
X41491760Y-80311760D01*
X41339922Y-80492713D01*
X41221811Y-80697288D01*
X41141019Y-80919262D01*
X41123256Y-81020000D01*
X42700000Y-81020000D01*
X42700000Y-81520000D01*
X41123256Y-81520000D01*
X41141019Y-81620738D01*
X41221811Y-81842712D01*
X41339922Y-82047287D01*
X41491760Y-82228240D01*
X41672715Y-82380080D01*
X42037935Y-82590937D01*
X41685973Y-82814300D01*
X41521727Y-82965333D01*
X41386817Y-83143069D01*
X41285518Y-83341880D01*
X41221024Y-83555492D01*
X41195378Y-83777149D01*
X41209389Y-83999840D01*
X41262614Y-84216531D01*
X41353370Y-84420376D01*
X41478792Y-84604928D01*
X41634908Y-84764348D01*
X41816793Y-84893606D01*
X42012707Y-84985796D01*
X42007613Y-85180364D01*
X41874373Y-85234738D01*
X41685973Y-85354301D01*
X41521727Y-85505333D01*
X41386817Y-85683069D01*
X41285518Y-85881880D01*
X41221024Y-86095492D01*
X41195378Y-86317149D01*
X41209389Y-86539840D01*
X41262614Y-86756531D01*
X41353370Y-86960376D01*
X41478792Y-87144928D01*
X41634908Y-87304348D01*
X41816792Y-87433605D01*
X42018690Y-87528612D01*
X42234223Y-87586364D01*
X42456567Y-87605035D01*
X42678718Y-87584035D01*
X42893626Y-87524032D01*
X43094525Y-87426914D01*
X43275040Y-87295761D01*
X43429478Y-87134715D01*
X43520295Y-86998024D01*
X43732164Y-87061991D01*
X43732164Y-87199999D01*
X43763209Y-87356072D01*
X43851616Y-87488384D01*
X43983928Y-87576791D01*
X44140001Y-87607836D01*
X45839999Y-87607836D01*
X45996072Y-87576791D01*
X46128384Y-87488384D01*
X46216791Y-87356072D01*
X46247836Y-87199999D01*
X46247836Y-85500001D01*
X46216791Y-85343928D01*
X46128384Y-85211616D01*
X45996072Y-85123209D01*
X45839999Y-85092164D01*
X45702341Y-85092164D01*
X45635436Y-84886252D01*
X45815040Y-84755761D01*
X45969481Y-84594712D01*
X46092961Y-84408859D01*
X46181578Y-84204078D01*
X46232531Y-83986840D01*
X46235946Y-83856399D01*
X46425415Y-83786500D01*
X46588058Y-83967134D01*
X46826145Y-84140112D01*
X47094994Y-84259813D01*
X47382855Y-84320999D01*
X47677146Y-84320999D01*
X47965007Y-84259813D01*
X48233855Y-84140112D01*
X48471943Y-83967134D01*
X48668862Y-83748432D01*
X48816010Y-83493565D01*
X48906949Y-83213683D01*
X48930000Y-82994363D01*
X48930000Y-78780000D01*
X50822287Y-78780000D01*
X50822287Y-79430000D01*
X50890308Y-79683857D01*
X51003648Y-79818932D01*
X51156352Y-79907094D01*
X51329998Y-79937713D01*
X51980000Y-79937713D01*
X51980000Y-78780000D01*
X50822287Y-78780000D01*
X48930000Y-78780000D01*
X48930000Y-77629998D01*
X50822287Y-77629998D01*
X50822287Y-78280000D01*
X51980000Y-78280000D01*
X51980000Y-77122287D01*
X52480000Y-77122287D01*
X52480000Y-79937713D01*
X53130000Y-79937713D01*
X53383857Y-79869692D01*
X53518932Y-79756352D01*
X53607094Y-79603649D01*
X53661225Y-79296656D01*
X54021503Y-79598965D01*
X54218500Y-79712701D01*
X54432251Y-79790500D01*
X54656263Y-79829999D01*
X54883737Y-79829999D01*
X55107749Y-79790500D01*
X55321500Y-79712701D01*
X55518497Y-79598965D01*
X55692750Y-79452750D01*
X55838965Y-79278497D01*
X55952701Y-79081500D01*
X56030500Y-78867749D01*
X56069999Y-78643737D01*
X56069999Y-78416263D01*
X56030500Y-78192251D01*
X55952701Y-77978500D01*
X55838965Y-77781503D01*
X55711841Y-77630001D01*
X68922164Y-77630001D01*
X68922164Y-79429999D01*
X68953209Y-79586072D01*
X69041616Y-79718384D01*
X69173928Y-79806791D01*
X69330001Y-79837836D01*
X71129999Y-79837836D01*
X71286072Y-79806791D01*
X71418384Y-79718384D01*
X71506791Y-79586072D01*
X71551165Y-79362993D01*
X71732862Y-79316426D01*
X71847251Y-79452750D01*
X72021503Y-79598965D01*
X72218500Y-79712701D01*
X72432251Y-79790500D01*
X72656263Y-79829999D01*
X72883737Y-79829999D01*
X73107749Y-79790500D01*
X73321500Y-79712701D01*
X73518497Y-79598965D01*
X73692750Y-79452750D01*
X73838965Y-79278497D01*
X73952701Y-79081500D01*
X74030500Y-78867749D01*
X74069999Y-78643737D01*
X74069999Y-78416263D01*
X74030500Y-78192251D01*
X73952701Y-77978500D01*
X73838965Y-77781503D01*
X73692750Y-77607250D01*
X73518497Y-77461035D01*
X73321500Y-77347299D01*
X73107749Y-77269500D01*
X72883737Y-77230001D01*
X72656263Y-77230001D01*
X72432251Y-77269500D01*
X72218500Y-77347299D01*
X72021503Y-77461035D01*
X71847251Y-77607250D01*
X71732862Y-77743574D01*
X71551165Y-77697007D01*
X71506791Y-77473928D01*
X71418384Y-77341616D01*
X71286072Y-77253209D01*
X71129999Y-77222164D01*
X69330001Y-77222164D01*
X69173928Y-77253209D01*
X69041616Y-77341616D01*
X68953209Y-77473928D01*
X68922164Y-77630001D01*
X55711841Y-77630001D01*
X55692750Y-77607250D01*
X55518497Y-77461035D01*
X55321500Y-77347299D01*
X55107749Y-77269500D01*
X54883737Y-77230001D01*
X54656263Y-77230001D01*
X54432251Y-77269500D01*
X54218500Y-77347299D01*
X54021503Y-77461035D01*
X53671199Y-77754975D01*
X53569692Y-77376144D01*
X53456352Y-77241070D01*
X53303647Y-77152906D01*
X53130002Y-77122287D01*
X52480000Y-77122287D01*
X51980000Y-77122287D01*
X51330000Y-77122287D01*
X51076144Y-77190308D01*
X50941070Y-77303648D01*
X50852906Y-77456353D01*
X50822287Y-77629998D01*
X48930000Y-77629998D01*
X48930000Y-73576637D01*
X48906949Y-73357317D01*
X48816010Y-73077435D01*
X48668861Y-72822567D01*
X48471943Y-72603868D01*
X48233852Y-72430886D01*
X47965006Y-72311187D01*
X47677145Y-72250001D01*
X47382854Y-72250001D01*
X47094993Y-72311187D01*
X46826145Y-72430888D01*
X46588057Y-72603866D01*
X46391138Y-72822569D01*
X46174697Y-73197455D01*
X46009206Y-72917624D01*
X45863408Y-72748715D01*
X45689998Y-72608290D01*
X45494462Y-72500795D01*
X45282991Y-72429626D01*
X45062241Y-72397029D01*
X44839224Y-72404037D01*
X44620965Y-72450430D01*
X44414371Y-72534740D01*
X44225973Y-72654301D01*
X44061727Y-72805333D01*
X43926817Y-72983069D01*
X43869101Y-73096344D01*
X43691870Y-73100984D01*
X43560080Y-72872715D01*
X43408240Y-72691760D01*
X43227287Y-72539922D01*
X43022712Y-72421811D01*
X42800738Y-72341019D01*
X42700000Y-72323256D01*
X42700000Y-73900000D01*
X41123256Y-73900000D01*
X39381000Y-73900000D01*
X39381000Y-73400000D01*
X41123256Y-73400000D01*
X42200000Y-73400000D01*
X42200000Y-72323256D01*
X42099262Y-72341019D01*
X41877288Y-72421811D01*
X41672713Y-72539922D01*
X41491760Y-72691760D01*
X41339922Y-72872713D01*
X41221811Y-73077288D01*
X41141019Y-73299262D01*
X41123256Y-73400000D01*
X39381000Y-73400000D01*
X39381000Y-64054170D01*
X39385789Y-64019213D01*
X39389488Y-63944909D01*
X47745638Y-63944909D01*
X47758155Y-64243543D01*
X47810057Y-64537901D01*
X47900436Y-64822809D01*
X48027701Y-65093262D01*
X48189618Y-65344508D01*
X48383341Y-65572132D01*
X48605466Y-65772135D01*
X48852095Y-65941003D01*
X49118888Y-66075771D01*
X49401159Y-66174068D01*
X49693960Y-66234172D01*
X49992128Y-66255021D01*
X50290441Y-66236253D01*
X50583641Y-66178198D01*
X50694257Y-66140541D01*
X106218739Y-66140541D01*
X106274008Y-66376183D01*
X106383893Y-66591841D01*
X106542045Y-66775063D01*
X106670000Y-66865995D01*
X106670001Y-88435650D01*
X106557797Y-88511903D01*
X106395841Y-88691772D01*
X106281466Y-88905081D01*
X106221274Y-89139514D01*
X106218739Y-89381541D01*
X106274008Y-89617183D01*
X106383893Y-89832841D01*
X106542045Y-90016063D01*
X106739336Y-90156270D01*
X106964381Y-90245372D01*
X107204174Y-90278220D01*
X107444892Y-90252920D01*
X107672620Y-90170932D01*
X107874217Y-90036991D01*
X108038047Y-89858827D01*
X108154650Y-89646727D01*
X108217294Y-89412936D01*
X108220048Y-89149980D01*
X108162314Y-88914928D01*
X108050180Y-88700435D01*
X107890115Y-88518878D01*
X107770000Y-88435396D01*
X107770000Y-68496638D01*
X147857000Y-68496638D01*
X147857001Y-89217363D01*
X147880052Y-89436683D01*
X147970991Y-89716565D01*
X148118139Y-89971432D01*
X148315058Y-90190134D01*
X148553145Y-90363112D01*
X148821994Y-90482813D01*
X149109855Y-90543999D01*
X149404146Y-90543999D01*
X149692007Y-90482813D01*
X149960855Y-90363112D01*
X150198943Y-90190134D01*
X150395862Y-89971432D01*
X150543010Y-89716565D01*
X150633949Y-89436683D01*
X150657000Y-89217363D01*
X150657000Y-88746541D01*
X181656739Y-88746541D01*
X181712008Y-88982183D01*
X181821893Y-89197841D01*
X181980045Y-89381063D01*
X182108001Y-89471996D01*
X182108000Y-91879288D01*
X182101015Y-91911734D01*
X182108000Y-91970749D01*
X182108000Y-91983690D01*
X182113300Y-92015532D01*
X182122536Y-92093567D01*
X182127757Y-92102396D01*
X182130457Y-92118617D01*
X182217405Y-92279759D01*
X182277419Y-92335235D01*
X184244094Y-94301912D01*
X184249408Y-94311760D01*
X184265608Y-94326735D01*
X184277579Y-94345275D01*
X184324249Y-94382067D01*
X184333399Y-94391217D01*
X184342048Y-94397397D01*
X184383863Y-94436051D01*
X184404042Y-94444972D01*
X184421372Y-94458634D01*
X184431311Y-94461186D01*
X184444686Y-94470743D01*
X184499249Y-94487062D01*
X184551330Y-94510087D01*
X184586396Y-94513124D01*
X184620114Y-94523207D01*
X184677009Y-94520972D01*
X184733750Y-94525886D01*
X184757448Y-94520000D01*
X187205791Y-94520000D01*
X187273750Y-94525886D01*
X187297448Y-94520000D01*
X189457288Y-94520000D01*
X189489734Y-94526985D01*
X189548749Y-94520000D01*
X189561690Y-94520000D01*
X189593549Y-94514697D01*
X189671567Y-94505464D01*
X189680396Y-94500243D01*
X189696617Y-94497543D01*
X189857759Y-94410595D01*
X189913236Y-94350580D01*
X190117387Y-94146430D01*
X190145274Y-94128423D01*
X190182074Y-94081742D01*
X190191218Y-94072598D01*
X190209977Y-94046349D01*
X190258635Y-93984626D01*
X190261187Y-93974688D01*
X190270743Y-93961315D01*
X190323207Y-93785887D01*
X190320000Y-93704261D01*
X190320000Y-93241259D01*
X190461341Y-93214516D01*
X190629401Y-93117486D01*
X190761397Y-92975229D01*
X190845595Y-92800390D01*
X190874518Y-92608496D01*
X190874518Y-92126501D01*
X190829516Y-91888659D01*
X190732486Y-91720599D01*
X190590230Y-91588604D01*
X190457842Y-91524850D01*
X190451128Y-91345413D01*
X190629401Y-91242487D01*
X190761397Y-91100229D01*
X190845595Y-90925390D01*
X190874518Y-90733496D01*
X190874518Y-90251501D01*
X190829516Y-90013659D01*
X190732486Y-89845599D01*
X190590230Y-89713604D01*
X190276571Y-89562555D01*
X190588047Y-89223827D01*
X190704650Y-89011727D01*
X190767294Y-88777936D01*
X190770048Y-88514980D01*
X190712314Y-88279928D01*
X190600180Y-88065435D01*
X190440115Y-87883878D01*
X190241369Y-87745746D01*
X190015401Y-87659005D01*
X189775276Y-87628670D01*
X189534838Y-87656490D01*
X189307982Y-87740857D01*
X189107797Y-87876901D01*
X188945841Y-88056772D01*
X188831466Y-88270081D01*
X188771274Y-88504514D01*
X188768739Y-88746541D01*
X188824008Y-88982183D01*
X188933893Y-89197841D01*
X189092044Y-89381062D01*
X189291342Y-89522692D01*
X188910599Y-89742514D01*
X188778603Y-89884771D01*
X188694405Y-90059610D01*
X188665482Y-90251504D01*
X188665482Y-90733499D01*
X188710484Y-90971341D01*
X188807514Y-91139401D01*
X188949770Y-91271396D01*
X189082158Y-91335150D01*
X189088872Y-91514587D01*
X188910599Y-91617513D01*
X188778603Y-91759771D01*
X188694405Y-91934610D01*
X188665482Y-92126504D01*
X188665482Y-92608499D01*
X188710484Y-92846341D01*
X188807514Y-93014401D01*
X188949767Y-93146392D01*
X189036806Y-93188300D01*
X188983931Y-93420000D01*
X188007176Y-93420000D01*
X187947994Y-93199128D01*
X188089401Y-93117487D01*
X188221397Y-92975229D01*
X188305595Y-92800390D01*
X188334518Y-92608496D01*
X188334518Y-92126501D01*
X188289516Y-91888659D01*
X188192486Y-91720599D01*
X188050230Y-91588604D01*
X187917842Y-91524850D01*
X187911128Y-91345413D01*
X188089401Y-91242487D01*
X188221397Y-91100229D01*
X188305595Y-90925390D01*
X188334518Y-90733496D01*
X188334518Y-90251501D01*
X188289516Y-90013659D01*
X188192486Y-89845599D01*
X188050230Y-89713604D01*
X187736571Y-89562555D01*
X188048047Y-89223827D01*
X188164650Y-89011727D01*
X188227294Y-88777936D01*
X188230048Y-88514980D01*
X188172314Y-88279928D01*
X188060180Y-88065435D01*
X187900115Y-87883878D01*
X187701369Y-87745746D01*
X187475401Y-87659005D01*
X187235276Y-87628670D01*
X186994838Y-87656490D01*
X186767982Y-87740857D01*
X186567797Y-87876901D01*
X186405841Y-88056772D01*
X186291466Y-88270081D01*
X186231274Y-88504514D01*
X186228739Y-88746541D01*
X186284008Y-88982183D01*
X186393893Y-89197841D01*
X186552044Y-89381062D01*
X186751342Y-89522692D01*
X186370599Y-89742514D01*
X186238603Y-89884771D01*
X186154405Y-90059610D01*
X186125482Y-90251504D01*
X186125482Y-90733499D01*
X186170484Y-90971341D01*
X186267514Y-91139401D01*
X186409770Y-91271396D01*
X186542158Y-91335150D01*
X186548872Y-91514587D01*
X186370599Y-91617513D01*
X186238603Y-91759771D01*
X186154405Y-91934610D01*
X186125482Y-92126504D01*
X186125482Y-92608499D01*
X186170484Y-92846341D01*
X186267514Y-93014401D01*
X186409767Y-93146392D01*
X186496806Y-93188300D01*
X186443931Y-93420000D01*
X185467176Y-93420000D01*
X185407994Y-93199128D01*
X185549401Y-93117487D01*
X185681397Y-92975229D01*
X185765595Y-92800390D01*
X185794518Y-92608496D01*
X185794518Y-92126501D01*
X185749516Y-91888659D01*
X185652486Y-91720599D01*
X185510230Y-91588604D01*
X185377842Y-91524850D01*
X185371128Y-91345413D01*
X185549401Y-91242487D01*
X185681397Y-91100229D01*
X185765595Y-90925390D01*
X185794518Y-90733496D01*
X185794518Y-90251501D01*
X185749516Y-90013659D01*
X185652486Y-89845599D01*
X185510230Y-89713604D01*
X185196571Y-89562555D01*
X185508047Y-89223827D01*
X185624650Y-89011727D01*
X185687294Y-88777936D01*
X185690048Y-88514980D01*
X185632314Y-88279928D01*
X185520180Y-88065435D01*
X185360115Y-87883878D01*
X185161369Y-87745746D01*
X184935401Y-87659005D01*
X184695276Y-87628670D01*
X184454838Y-87656490D01*
X184227982Y-87740857D01*
X184027797Y-87876901D01*
X183865841Y-88056772D01*
X183762918Y-88248724D01*
X183583510Y-88247784D01*
X183488180Y-88065435D01*
X183328115Y-87883878D01*
X183129369Y-87745746D01*
X182903401Y-87659005D01*
X182663276Y-87628670D01*
X182422838Y-87656490D01*
X182195982Y-87740857D01*
X181995797Y-87876901D01*
X181833841Y-88056772D01*
X181719466Y-88270081D01*
X181659274Y-88504514D01*
X181656739Y-88746541D01*
X150657000Y-88746541D01*
X150657000Y-84298355D01*
X183380000Y-84298355D01*
X183380000Y-85278231D01*
X183394605Y-85422007D01*
X183452320Y-85606174D01*
X183545887Y-85774975D01*
X183671482Y-85921509D01*
X183823986Y-86039802D01*
X183997148Y-86125010D01*
X184183915Y-86173658D01*
X184376646Y-86183759D01*
X184567476Y-86154899D01*
X184748600Y-86088258D01*
X184975270Y-85947717D01*
X185093983Y-86039800D01*
X185267148Y-86125010D01*
X185453915Y-86173658D01*
X185646646Y-86183759D01*
X185837476Y-86154899D01*
X186018600Y-86088258D01*
X186245270Y-85947717D01*
X186363983Y-86039800D01*
X186537148Y-86125010D01*
X186723915Y-86173658D01*
X186916646Y-86183759D01*
X187107476Y-86154899D01*
X187288600Y-86088258D01*
X187515270Y-85947717D01*
X187633983Y-86039800D01*
X187807148Y-86125010D01*
X187993915Y-86173658D01*
X188186646Y-86183759D01*
X188377474Y-86154899D01*
X188558603Y-86088257D01*
X188696659Y-86002659D01*
X188820008Y-86104700D01*
X189001144Y-86202640D01*
X189160000Y-86251814D01*
X189160000Y-86251000D01*
X189660000Y-86251000D01*
X189805242Y-86208252D01*
X190047392Y-86081659D01*
X190271141Y-86202639D01*
X190430000Y-86251814D01*
X190430000Y-85030000D01*
X190930000Y-85030000D01*
X190930000Y-86251000D01*
X191075243Y-86208252D01*
X191257719Y-86112856D01*
X191418203Y-85983824D01*
X191550561Y-85826086D01*
X191649762Y-85645638D01*
X191712024Y-85449366D01*
X191730000Y-85278331D01*
X191730000Y-85030000D01*
X190930000Y-85030000D01*
X190430000Y-85030000D01*
X190430000Y-84530000D01*
X190930000Y-84530000D01*
X191730000Y-84530000D01*
X191730000Y-84278193D01*
X191714986Y-84125068D01*
X191655468Y-83927936D01*
X191558800Y-83746129D01*
X191428653Y-83586553D01*
X191269995Y-83455300D01*
X191088858Y-83357361D01*
X190930000Y-83308186D01*
X190930000Y-84530000D01*
X190430000Y-84530000D01*
X190430000Y-83309000D01*
X190284757Y-83351748D01*
X190042608Y-83478340D01*
X189818858Y-83357361D01*
X189660000Y-83308186D01*
X189660000Y-86251000D01*
X189160000Y-86251000D01*
X189160000Y-83309000D01*
X189014757Y-83351748D01*
X188832277Y-83447146D01*
X188705198Y-83549321D01*
X188472850Y-83434990D01*
X188286085Y-83386342D01*
X188093354Y-83376241D01*
X187902524Y-83405101D01*
X187721400Y-83471742D01*
X187494730Y-83612283D01*
X187376017Y-83520200D01*
X187202852Y-83434990D01*
X187016085Y-83386342D01*
X186823354Y-83376241D01*
X186632524Y-83405101D01*
X186451400Y-83471742D01*
X186224730Y-83612283D01*
X186106017Y-83520200D01*
X185932852Y-83434990D01*
X185746085Y-83386342D01*
X185553354Y-83376241D01*
X185362524Y-83405101D01*
X185181400Y-83471742D01*
X184954730Y-83612283D01*
X184836017Y-83520200D01*
X184662852Y-83434990D01*
X184476085Y-83386342D01*
X184283354Y-83376241D01*
X184092524Y-83405101D01*
X183911400Y-83471742D01*
X183747375Y-83573441D01*
X183607144Y-83706051D01*
X183496447Y-83864145D01*
X183419799Y-84041266D01*
X183380000Y-84298355D01*
X150657000Y-84298355D01*
X150657000Y-68496637D01*
X150633949Y-68277317D01*
X150543010Y-67997435D01*
X150395861Y-67742567D01*
X150198943Y-67523868D01*
X149960852Y-67350886D01*
X149692006Y-67231187D01*
X149404145Y-67170001D01*
X149109854Y-67170001D01*
X148821993Y-67231187D01*
X148553145Y-67350888D01*
X148315057Y-67523866D01*
X148118138Y-67742569D01*
X147970990Y-67997436D01*
X147880051Y-68277318D01*
X147857000Y-68496638D01*
X107770000Y-68496638D01*
X107770000Y-66865231D01*
X107874219Y-66795989D01*
X108038047Y-66617827D01*
X108154650Y-66405727D01*
X108217294Y-66171936D01*
X108220048Y-65908980D01*
X108162314Y-65673928D01*
X108050180Y-65459435D01*
X107890115Y-65277878D01*
X107691369Y-65139746D01*
X107465401Y-65053005D01*
X107225276Y-65022670D01*
X106984838Y-65050490D01*
X106757982Y-65134857D01*
X106557797Y-65270901D01*
X106395841Y-65450772D01*
X106281466Y-65664081D01*
X106221274Y-65898514D01*
X106218739Y-66140541D01*
X50694257Y-66140541D01*
X50866604Y-66081869D01*
X51134328Y-65948970D01*
X51382124Y-65781830D01*
X51605645Y-65583379D01*
X51800950Y-65357115D01*
X51964620Y-65107002D01*
X52093768Y-64837448D01*
X52186133Y-64553177D01*
X52240089Y-64259191D01*
X52250077Y-63850546D01*
X52210546Y-63554273D01*
X52132180Y-63265838D01*
X52016349Y-62990288D01*
X52004532Y-62970145D01*
X84350000Y-62970145D01*
X84350000Y-63229855D01*
X84390630Y-63486377D01*
X84470885Y-63733381D01*
X84588794Y-63964787D01*
X84741452Y-64174904D01*
X84925096Y-64358548D01*
X85135213Y-64511206D01*
X85366619Y-64629115D01*
X85613623Y-64709370D01*
X85870145Y-64750000D01*
X86129855Y-64750000D01*
X86386377Y-64709370D01*
X86633381Y-64629115D01*
X86864787Y-64511206D01*
X87074904Y-64358548D01*
X87258548Y-64174904D01*
X87411206Y-63964787D01*
X87519722Y-63751815D01*
X100071738Y-63751815D01*
X100117133Y-63786333D01*
X100327778Y-63896223D01*
X100553927Y-63969049D01*
X100789116Y-64002730D01*
X101026622Y-63996305D01*
X101259646Y-63949952D01*
X101481526Y-63865003D01*
X101669852Y-63753405D01*
X101668262Y-63751815D01*
X102611738Y-63751815D01*
X102657133Y-63786333D01*
X102867778Y-63896223D01*
X103093927Y-63969049D01*
X103329116Y-64002730D01*
X103566622Y-63996305D01*
X103799646Y-63949952D01*
X104021526Y-63865003D01*
X104209852Y-63753405D01*
X103410000Y-62953553D01*
X102611738Y-63751815D01*
X101668262Y-63751815D01*
X100870000Y-62953553D01*
X100071738Y-63751815D01*
X87519722Y-63751815D01*
X87529115Y-63733381D01*
X87609370Y-63486377D01*
X87650000Y-63229855D01*
X87650000Y-62970145D01*
X87609370Y-62713623D01*
X87567672Y-62585286D01*
X99465016Y-62585286D01*
X99482623Y-62822217D01*
X99539901Y-63052805D01*
X99635209Y-63270440D01*
X99718876Y-63397570D01*
X100516447Y-62600000D01*
X101223553Y-62600000D01*
X102023941Y-63400388D01*
X102135190Y-63209628D01*
X102258877Y-63397569D01*
X103056447Y-62600000D01*
X103763553Y-62600000D01*
X104563941Y-63400388D01*
X104738339Y-63101343D01*
X104881034Y-63348495D01*
X105027250Y-63522750D01*
X105201503Y-63668965D01*
X105398500Y-63782701D01*
X105612251Y-63860500D01*
X105836263Y-63899999D01*
X106063737Y-63899999D01*
X106287749Y-63860500D01*
X106501500Y-63782701D01*
X106698497Y-63668965D01*
X106872750Y-63522750D01*
X107018965Y-63348497D01*
X107220000Y-63000297D01*
X107421035Y-63348497D01*
X107567250Y-63522750D01*
X107741503Y-63668965D01*
X107938500Y-63782701D01*
X108152251Y-63860500D01*
X108376263Y-63899999D01*
X108603737Y-63899999D01*
X108827749Y-63860500D01*
X109041500Y-63782701D01*
X109238497Y-63668965D01*
X109412750Y-63522750D01*
X109558965Y-63348497D01*
X109760000Y-63000297D01*
X109961035Y-63348497D01*
X110107250Y-63522750D01*
X110281503Y-63668965D01*
X110478500Y-63782701D01*
X110692251Y-63860500D01*
X110916263Y-63899999D01*
X111143737Y-63899999D01*
X111367749Y-63860500D01*
X111581500Y-63782701D01*
X111778497Y-63668965D01*
X111952750Y-63522750D01*
X112098965Y-63348497D01*
X112300000Y-63000297D01*
X112501035Y-63348497D01*
X112647250Y-63522750D01*
X112821503Y-63668965D01*
X113018500Y-63782701D01*
X113232251Y-63860500D01*
X113456263Y-63899999D01*
X113683737Y-63899999D01*
X113907749Y-63860500D01*
X114121500Y-63782701D01*
X114174996Y-63751815D01*
X115311738Y-63751815D01*
X115357133Y-63786333D01*
X115567778Y-63896223D01*
X115793927Y-63969049D01*
X116029116Y-64002730D01*
X116266622Y-63996305D01*
X116499646Y-63949952D01*
X116721526Y-63865003D01*
X116909852Y-63753405D01*
X116908262Y-63751815D01*
X117851738Y-63751815D01*
X117897133Y-63786333D01*
X118107778Y-63896223D01*
X118333927Y-63969049D01*
X118569116Y-64002730D01*
X118806622Y-63996305D01*
X119039646Y-63949952D01*
X119261526Y-63865003D01*
X119449852Y-63753405D01*
X119448262Y-63751815D01*
X120391738Y-63751815D01*
X120437133Y-63786333D01*
X120647778Y-63896223D01*
X120873927Y-63969049D01*
X121109116Y-64002730D01*
X121346622Y-63996305D01*
X121579646Y-63949952D01*
X121801526Y-63865003D01*
X121989852Y-63753405D01*
X121988262Y-63751815D01*
X122931738Y-63751815D01*
X122977133Y-63786333D01*
X123187778Y-63896223D01*
X123413927Y-63969049D01*
X123649116Y-64002730D01*
X123886622Y-63996305D01*
X124119646Y-63949952D01*
X124341526Y-63865003D01*
X124529852Y-63753405D01*
X124528262Y-63751815D01*
X125471738Y-63751815D01*
X125517133Y-63786333D01*
X125727778Y-63896223D01*
X125953927Y-63969049D01*
X126189116Y-64002730D01*
X126426622Y-63996305D01*
X126659646Y-63949952D01*
X126881526Y-63865003D01*
X127069852Y-63753405D01*
X126270000Y-62953553D01*
X125471738Y-63751815D01*
X124528262Y-63751815D01*
X123730000Y-62953553D01*
X122931738Y-63751815D01*
X121988262Y-63751815D01*
X121190000Y-62953553D01*
X120391738Y-63751815D01*
X119448262Y-63751815D01*
X118650000Y-62953553D01*
X117851738Y-63751815D01*
X116908262Y-63751815D01*
X116110000Y-62953553D01*
X115311738Y-63751815D01*
X114174996Y-63751815D01*
X114318497Y-63668965D01*
X114492750Y-63522750D01*
X114638964Y-63348497D01*
X114773371Y-63115697D01*
X114958876Y-63397570D01*
X115756447Y-62600000D01*
X116463553Y-62600000D01*
X117263941Y-63400388D01*
X117375190Y-63209628D01*
X117498877Y-63397569D01*
X118296447Y-62600000D01*
X119003553Y-62600000D01*
X119803941Y-63400388D01*
X119915190Y-63209628D01*
X120038877Y-63397569D01*
X120836447Y-62600000D01*
X121543553Y-62600000D01*
X122343941Y-63400388D01*
X122455190Y-63209628D01*
X122578877Y-63397569D01*
X123376447Y-62600000D01*
X124083553Y-62600000D01*
X124883941Y-63400388D01*
X124995190Y-63209628D01*
X125118877Y-63397569D01*
X125916447Y-62600000D01*
X126623553Y-62600000D01*
X127423941Y-63400388D01*
X127598339Y-63101343D01*
X127741034Y-63348495D01*
X127887250Y-63522750D01*
X128061503Y-63668965D01*
X128258500Y-63782701D01*
X128472251Y-63860500D01*
X128696263Y-63899999D01*
X128923737Y-63899999D01*
X129147749Y-63860500D01*
X129361500Y-63782701D01*
X129558497Y-63668965D01*
X129732750Y-63522750D01*
X129878965Y-63348497D01*
X130080000Y-63000297D01*
X130281035Y-63348497D01*
X130427250Y-63522750D01*
X130601503Y-63668965D01*
X130798500Y-63782701D01*
X131012251Y-63860500D01*
X131236263Y-63899999D01*
X131463737Y-63899999D01*
X131687749Y-63860500D01*
X131901500Y-63782701D01*
X132098497Y-63668965D01*
X132272750Y-63522750D01*
X132418965Y-63348497D01*
X132620000Y-63000297D01*
X132821035Y-63348497D01*
X132967250Y-63522750D01*
X133141503Y-63668965D01*
X133338500Y-63782701D01*
X133552251Y-63860500D01*
X133776263Y-63899999D01*
X134003737Y-63899999D01*
X134227749Y-63860500D01*
X134441500Y-63782701D01*
X134494996Y-63751815D01*
X135631738Y-63751815D01*
X135677133Y-63786333D01*
X135887778Y-63896223D01*
X136113927Y-63969049D01*
X136349116Y-64002730D01*
X136586622Y-63996305D01*
X136819646Y-63949952D01*
X137041526Y-63865003D01*
X137229852Y-63753405D01*
X137228262Y-63751815D01*
X138171738Y-63751815D01*
X138217133Y-63786333D01*
X138427778Y-63896223D01*
X138653927Y-63969049D01*
X138889116Y-64002730D01*
X139126622Y-63996305D01*
X139359646Y-63949952D01*
X139581526Y-63865003D01*
X139769852Y-63753405D01*
X138970000Y-62953553D01*
X138171738Y-63751815D01*
X137228262Y-63751815D01*
X136430000Y-62953553D01*
X135631738Y-63751815D01*
X134494996Y-63751815D01*
X134638497Y-63668965D01*
X134812750Y-63522750D01*
X134958964Y-63348497D01*
X135093371Y-63115697D01*
X135278876Y-63397570D01*
X136076447Y-62600000D01*
X136783553Y-62600000D01*
X137583941Y-63400388D01*
X137695190Y-63209628D01*
X137818877Y-63397569D01*
X138616447Y-62600000D01*
X139323553Y-62600000D01*
X140123941Y-63400388D01*
X140298339Y-63101343D01*
X140441034Y-63348495D01*
X140587250Y-63522750D01*
X140761503Y-63668965D01*
X140958500Y-63782701D01*
X141172251Y-63860500D01*
X141396263Y-63899999D01*
X141623737Y-63899999D01*
X141847749Y-63860500D01*
X142061500Y-63782701D01*
X142258497Y-63668965D01*
X142432750Y-63522750D01*
X142578965Y-63348497D01*
X142780000Y-63000297D01*
X142981035Y-63348497D01*
X143127250Y-63522750D01*
X143301503Y-63668965D01*
X143498500Y-63782701D01*
X143712251Y-63860500D01*
X143936263Y-63899999D01*
X144163737Y-63899999D01*
X144387749Y-63860500D01*
X144601500Y-63782701D01*
X144654996Y-63751815D01*
X145791738Y-63751815D01*
X145837133Y-63786333D01*
X146047778Y-63896223D01*
X146273927Y-63969049D01*
X146509116Y-64002730D01*
X146746622Y-63996305D01*
X146979646Y-63949952D01*
X147201526Y-63865003D01*
X147389852Y-63753405D01*
X146590000Y-62953553D01*
X145791738Y-63751815D01*
X144654996Y-63751815D01*
X144798497Y-63668965D01*
X144972750Y-63522750D01*
X145118964Y-63348497D01*
X145253371Y-63115697D01*
X145438876Y-63397570D01*
X146236447Y-62600000D01*
X146943553Y-62600000D01*
X147816853Y-63473300D01*
X147853209Y-63656072D01*
X147941616Y-63788384D01*
X148073928Y-63876791D01*
X148230001Y-63907836D01*
X150029999Y-63907836D01*
X150186072Y-63876791D01*
X150318384Y-63788384D01*
X150406791Y-63656072D01*
X150437836Y-63499999D01*
X150437836Y-62970145D01*
X162350000Y-62970145D01*
X162350000Y-63229855D01*
X162390630Y-63486377D01*
X162470885Y-63733381D01*
X162588794Y-63964787D01*
X162741452Y-64174904D01*
X162925096Y-64358548D01*
X163135213Y-64511206D01*
X163366619Y-64629115D01*
X163613623Y-64709370D01*
X163870145Y-64750000D01*
X164129855Y-64750000D01*
X164386377Y-64709370D01*
X164633381Y-64629115D01*
X164864787Y-64511206D01*
X165074904Y-64358548D01*
X165258548Y-64174904D01*
X165411206Y-63964787D01*
X165421334Y-63944909D01*
X197745638Y-63944909D01*
X197758155Y-64243543D01*
X197810057Y-64537901D01*
X197900436Y-64822809D01*
X198027701Y-65093262D01*
X198189618Y-65344508D01*
X198383341Y-65572132D01*
X198605466Y-65772135D01*
X198852095Y-65941003D01*
X199118888Y-66075771D01*
X199401159Y-66174068D01*
X199693960Y-66234172D01*
X199992128Y-66255021D01*
X200290441Y-66236253D01*
X200583641Y-66178198D01*
X200866604Y-66081869D01*
X201134328Y-65948970D01*
X201382124Y-65781830D01*
X201605645Y-65583379D01*
X201800950Y-65357115D01*
X201964620Y-65107002D01*
X202093768Y-64837448D01*
X202186133Y-64553177D01*
X202240089Y-64259191D01*
X202250077Y-63850546D01*
X202210546Y-63554273D01*
X202132180Y-63265838D01*
X202016349Y-62990288D01*
X201865094Y-62732478D01*
X201681075Y-62496946D01*
X201467519Y-62287816D01*
X201228180Y-62108769D01*
X200967269Y-61962950D01*
X200689350Y-61852914D01*
X200399330Y-61780604D01*
X200102296Y-61747285D01*
X199803463Y-61753546D01*
X199508079Y-61799274D01*
X199221339Y-61883665D01*
X198948281Y-62005239D01*
X198693702Y-62161857D01*
X198462066Y-62350774D01*
X198257461Y-62568658D01*
X198083461Y-62811697D01*
X197943138Y-63075608D01*
X197838948Y-63355764D01*
X197772728Y-63647232D01*
X197745638Y-63944909D01*
X165421334Y-63944909D01*
X165529115Y-63733381D01*
X165609370Y-63486377D01*
X165650000Y-63229855D01*
X165650000Y-62970145D01*
X165609370Y-62713623D01*
X165529115Y-62466619D01*
X165411206Y-62235213D01*
X165258548Y-62025096D01*
X165074904Y-61841452D01*
X164864787Y-61688794D01*
X164633381Y-61570885D01*
X164386377Y-61490630D01*
X164129855Y-61450000D01*
X163870145Y-61450000D01*
X163613623Y-61490630D01*
X163366619Y-61570885D01*
X163135213Y-61688794D01*
X162925096Y-61841452D01*
X162741452Y-62025096D01*
X162588794Y-62235213D01*
X162470885Y-62466619D01*
X162390630Y-62713623D01*
X162350000Y-62970145D01*
X150437836Y-62970145D01*
X150437836Y-61700001D01*
X150406791Y-61543928D01*
X150318384Y-61411616D01*
X150186072Y-61323209D01*
X150029999Y-61292164D01*
X148230001Y-61292164D01*
X148073928Y-61323209D01*
X147941616Y-61411616D01*
X147853209Y-61543928D01*
X147816853Y-61726700D01*
X146943553Y-62600000D01*
X146236447Y-62600000D01*
X145439160Y-61802714D01*
X145249676Y-62077898D01*
X145118966Y-61851505D01*
X144972750Y-61677250D01*
X144798497Y-61531035D01*
X144656220Y-61448891D01*
X145792444Y-61448891D01*
X146590000Y-62246447D01*
X147388553Y-61447894D01*
X147227882Y-61348081D01*
X147007827Y-61258502D01*
X146775828Y-61207281D01*
X146538515Y-61195883D01*
X146302673Y-61224632D01*
X146075043Y-61292708D01*
X145862139Y-61398162D01*
X145792444Y-61448891D01*
X144656220Y-61448891D01*
X144601500Y-61417299D01*
X144387749Y-61339500D01*
X144163737Y-61300001D01*
X143936263Y-61300001D01*
X143712251Y-61339500D01*
X143498500Y-61417299D01*
X143301503Y-61531035D01*
X143127250Y-61677250D01*
X142981035Y-61851503D01*
X142780000Y-62199703D01*
X142578965Y-61851503D01*
X142432750Y-61677250D01*
X142258497Y-61531035D01*
X142061500Y-61417299D01*
X141847749Y-61339500D01*
X141623737Y-61300001D01*
X141396263Y-61300001D01*
X141172251Y-61339500D01*
X140958500Y-61417299D01*
X140761503Y-61531035D01*
X140587250Y-61677250D01*
X140441034Y-61851504D01*
X140383756Y-61950715D01*
X140210060Y-61949275D01*
X140136219Y-61816335D01*
X140123306Y-61800247D01*
X139323553Y-62600000D01*
X138616447Y-62600000D01*
X137819159Y-61802713D01*
X137711166Y-61959549D01*
X137583306Y-61800247D01*
X136783553Y-62600000D01*
X136076447Y-62600000D01*
X135279160Y-61802714D01*
X135089676Y-62077898D01*
X134958966Y-61851505D01*
X134812750Y-61677250D01*
X134638497Y-61531035D01*
X134496220Y-61448891D01*
X135632444Y-61448891D01*
X136430000Y-62246447D01*
X137227556Y-61448891D01*
X138172444Y-61448891D01*
X138970000Y-62246447D01*
X139768553Y-61447894D01*
X139607882Y-61348081D01*
X139387827Y-61258502D01*
X139155828Y-61207281D01*
X138918515Y-61195883D01*
X138682673Y-61224632D01*
X138455043Y-61292708D01*
X138242139Y-61398162D01*
X138172444Y-61448891D01*
X137227556Y-61448891D01*
X137228553Y-61447894D01*
X137067882Y-61348081D01*
X136847827Y-61258502D01*
X136615828Y-61207281D01*
X136378515Y-61195883D01*
X136142673Y-61224632D01*
X135915043Y-61292708D01*
X135702139Y-61398162D01*
X135632444Y-61448891D01*
X134496220Y-61448891D01*
X134441500Y-61417299D01*
X134227749Y-61339500D01*
X134003737Y-61300001D01*
X133776263Y-61300001D01*
X133552251Y-61339500D01*
X133338500Y-61417299D01*
X133141503Y-61531035D01*
X132967250Y-61677250D01*
X132821035Y-61851503D01*
X132620000Y-62199703D01*
X132418965Y-61851503D01*
X132272750Y-61677250D01*
X132098497Y-61531035D01*
X131901500Y-61417299D01*
X131687749Y-61339500D01*
X131463737Y-61300001D01*
X131236263Y-61300001D01*
X131012251Y-61339500D01*
X130798500Y-61417299D01*
X130601503Y-61531035D01*
X130427250Y-61677250D01*
X130281035Y-61851503D01*
X130080000Y-62199703D01*
X129878965Y-61851503D01*
X129732750Y-61677250D01*
X129558497Y-61531035D01*
X129361500Y-61417299D01*
X129147749Y-61339500D01*
X128923737Y-61300001D01*
X128696263Y-61300001D01*
X128472251Y-61339500D01*
X128258500Y-61417299D01*
X128061503Y-61531035D01*
X127887250Y-61677250D01*
X127741034Y-61851504D01*
X127683756Y-61950715D01*
X127510060Y-61949275D01*
X127436219Y-61816335D01*
X127423306Y-61800247D01*
X126623553Y-62600000D01*
X125916447Y-62600000D01*
X125119159Y-61802713D01*
X125011166Y-61959549D01*
X124883306Y-61800247D01*
X124083553Y-62600000D01*
X123376447Y-62600000D01*
X122579159Y-61802713D01*
X122471166Y-61959549D01*
X122343306Y-61800247D01*
X121543553Y-62600000D01*
X120836447Y-62600000D01*
X120039159Y-61802713D01*
X119931166Y-61959549D01*
X119803306Y-61800247D01*
X119003553Y-62600000D01*
X118296447Y-62600000D01*
X117499159Y-61802713D01*
X117391166Y-61959549D01*
X117263306Y-61800247D01*
X116463553Y-62600000D01*
X115756447Y-62600000D01*
X114959160Y-61802714D01*
X114769676Y-62077898D01*
X114638966Y-61851505D01*
X114492750Y-61677250D01*
X114318497Y-61531035D01*
X114176220Y-61448891D01*
X115312444Y-61448891D01*
X116110000Y-62246447D01*
X116907556Y-61448891D01*
X117852444Y-61448891D01*
X118650000Y-62246447D01*
X119447556Y-61448891D01*
X120392444Y-61448891D01*
X121190000Y-62246447D01*
X121987556Y-61448891D01*
X122932444Y-61448891D01*
X123730000Y-62246447D01*
X124527556Y-61448891D01*
X125472444Y-61448891D01*
X126270000Y-62246447D01*
X127068553Y-61447894D01*
X126907882Y-61348081D01*
X126687827Y-61258502D01*
X126455828Y-61207281D01*
X126218515Y-61195883D01*
X125982673Y-61224632D01*
X125755043Y-61292708D01*
X125542139Y-61398162D01*
X125472444Y-61448891D01*
X124527556Y-61448891D01*
X124528553Y-61447894D01*
X124367882Y-61348081D01*
X124147827Y-61258502D01*
X123915828Y-61207281D01*
X123678515Y-61195883D01*
X123442673Y-61224632D01*
X123215043Y-61292708D01*
X123002139Y-61398162D01*
X122932444Y-61448891D01*
X121987556Y-61448891D01*
X121988553Y-61447894D01*
X121827882Y-61348081D01*
X121607827Y-61258502D01*
X121375828Y-61207281D01*
X121138515Y-61195883D01*
X120902673Y-61224632D01*
X120675043Y-61292708D01*
X120462139Y-61398162D01*
X120392444Y-61448891D01*
X119447556Y-61448891D01*
X119448553Y-61447894D01*
X119287882Y-61348081D01*
X119067827Y-61258502D01*
X118835828Y-61207281D01*
X118598515Y-61195883D01*
X118362673Y-61224632D01*
X118135043Y-61292708D01*
X117922139Y-61398162D01*
X117852444Y-61448891D01*
X116907556Y-61448891D01*
X116908553Y-61447894D01*
X116747882Y-61348081D01*
X116527827Y-61258502D01*
X116295828Y-61207281D01*
X116058515Y-61195883D01*
X115822673Y-61224632D01*
X115595043Y-61292708D01*
X115382139Y-61398162D01*
X115312444Y-61448891D01*
X114176220Y-61448891D01*
X114121500Y-61417299D01*
X113907749Y-61339500D01*
X113683737Y-61300001D01*
X113456263Y-61300001D01*
X113232251Y-61339500D01*
X113018500Y-61417299D01*
X112821503Y-61531035D01*
X112647250Y-61677250D01*
X112501035Y-61851503D01*
X112300000Y-62199703D01*
X112098965Y-61851503D01*
X111952750Y-61677250D01*
X111778497Y-61531035D01*
X111581500Y-61417299D01*
X111367749Y-61339500D01*
X111143737Y-61300001D01*
X110916263Y-61300001D01*
X110692251Y-61339500D01*
X110478500Y-61417299D01*
X110281503Y-61531035D01*
X110107250Y-61677250D01*
X109961035Y-61851503D01*
X109760000Y-62199703D01*
X109558965Y-61851503D01*
X109412750Y-61677250D01*
X109238497Y-61531035D01*
X109041500Y-61417299D01*
X108827749Y-61339500D01*
X108603737Y-61300001D01*
X108376263Y-61300001D01*
X108152251Y-61339500D01*
X107938500Y-61417299D01*
X107741503Y-61531035D01*
X107567250Y-61677250D01*
X107421035Y-61851503D01*
X107220000Y-62199703D01*
X107018965Y-61851503D01*
X106872750Y-61677250D01*
X106698497Y-61531035D01*
X106501500Y-61417299D01*
X106287749Y-61339500D01*
X106063737Y-61300001D01*
X105836263Y-61300001D01*
X105612251Y-61339500D01*
X105398500Y-61417299D01*
X105201503Y-61531035D01*
X105027250Y-61677250D01*
X104881034Y-61851504D01*
X104823756Y-61950715D01*
X104650060Y-61949275D01*
X104576219Y-61816335D01*
X104563306Y-61800247D01*
X103763553Y-62600000D01*
X103056447Y-62600000D01*
X102259159Y-61802713D01*
X102151166Y-61959549D01*
X102023306Y-61800247D01*
X101223553Y-62600000D01*
X100516447Y-62600000D01*
X99719160Y-61802714D01*
X99649519Y-61903852D01*
X99549675Y-62119441D01*
X99487581Y-62348772D01*
X99465016Y-62585286D01*
X87567672Y-62585286D01*
X87529115Y-62466619D01*
X87411206Y-62235213D01*
X87258548Y-62025096D01*
X87074904Y-61841452D01*
X86864787Y-61688794D01*
X86633381Y-61570885D01*
X86386377Y-61490630D01*
X86129855Y-61450000D01*
X85870145Y-61450000D01*
X85613623Y-61490630D01*
X85366619Y-61570885D01*
X85135213Y-61688794D01*
X84925096Y-61841452D01*
X84741452Y-62025096D01*
X84588794Y-62235213D01*
X84470885Y-62466619D01*
X84390630Y-62713623D01*
X84350000Y-62970145D01*
X52004532Y-62970145D01*
X51865094Y-62732478D01*
X51681075Y-62496946D01*
X51467519Y-62287816D01*
X51228180Y-62108769D01*
X50967269Y-61962950D01*
X50689350Y-61852914D01*
X50399330Y-61780604D01*
X50102296Y-61747285D01*
X49803463Y-61753546D01*
X49508079Y-61799274D01*
X49221339Y-61883665D01*
X48948281Y-62005239D01*
X48693702Y-62161857D01*
X48462066Y-62350774D01*
X48257461Y-62568658D01*
X48083461Y-62811697D01*
X47943138Y-63075608D01*
X47838948Y-63355764D01*
X47772728Y-63647232D01*
X47745638Y-63944909D01*
X39389488Y-63944909D01*
X39404612Y-63641128D01*
X39458031Y-63285817D01*
X39546478Y-62937558D01*
X39669077Y-62599801D01*
X39824612Y-62275903D01*
X40011546Y-61969054D01*
X40228038Y-61682279D01*
X40443781Y-61448891D01*
X100072444Y-61448891D01*
X100870000Y-62246447D01*
X101667556Y-61448891D01*
X102612444Y-61448891D01*
X103410000Y-62246447D01*
X104208553Y-61447894D01*
X104047882Y-61348081D01*
X103827827Y-61258502D01*
X103595828Y-61207281D01*
X103358515Y-61195883D01*
X103122673Y-61224632D01*
X102895043Y-61292708D01*
X102682139Y-61398162D01*
X102612444Y-61448891D01*
X101667556Y-61448891D01*
X101668553Y-61447894D01*
X101507882Y-61348081D01*
X101287827Y-61258502D01*
X101055828Y-61207281D01*
X100818515Y-61195883D01*
X100582673Y-61224632D01*
X100355043Y-61292708D01*
X100142139Y-61398162D01*
X100072444Y-61448891D01*
X40443781Y-61448891D01*
X40471943Y-61418426D01*
X40740835Y-61180110D01*
X41032085Y-60969668D01*
X41342779Y-60789203D01*
X41669872Y-60640483D01*
X42010120Y-60524985D01*
X42360148Y-60443852D01*
X42718525Y-60397625D01*
X43015163Y-60385971D01*
X43039164Y-60381000D01*
X199945830Y-60381000D01*
X199980787Y-60385789D01*
G37*
M02*
