M48
; DRILL file {KiCad (5.99.0-276-g47d7fea9b)} date Tue Oct 29 18:21:29 2019
; FORMAT={-:-/ absolute / inch / decimal}
; #@! TF.CreationDate,2019-10-29T18:21:29-07:00
; #@! TF.GenerationSoftware,Kicad,Pcbnew,(5.99.0-276-g47d7fea9b)
FMAT,2
INCH
T1C0.0236
T2C0.0299
T3C0.0339
T4C0.0354
T5C0.0394
T6C0.0984
T7C0.1457
%
G90
G05
T1
X1.8263Y-3.5046
X1.8713Y-2.8996
X1.8713Y-3.1996
X2.1654Y-3.3858
X2.4413Y-3.1146
X4.0713Y-2.5496
X4.2213Y-2.5996
X4.2213Y-3.5146
X4.7713Y-2.5646
X5.3713Y-2.5446
X5.6713Y-2.5996
X5.8763Y-2.6996
X5.8763Y-3.5096
X7.0163Y-3.2346
X7.1913Y-3.4896
X7.2713Y-3.4896
X7.3713Y-3.4896
X7.4713Y-3.4896
X7.5363Y-3.4196
T2
X7.2571Y-3.3378
X7.3071Y-3.3378
X7.3571Y-3.3378
X7.4071Y-3.3378
X7.4571Y-3.3378
X7.5071Y-3.3378
T3
X3.9713Y-2.4646
X4.0713Y-2.4646
X4.1713Y-2.4646
X4.2713Y-2.4646
X4.3713Y-2.4646
X4.4713Y-2.4646
X4.5713Y-2.4646
X4.6713Y-2.4646
X4.7713Y-2.4646
X4.8713Y-2.4646
X4.9713Y-2.4646
X5.0713Y-2.4646
X5.1713Y-2.4646
X5.2713Y-2.4646
X5.3713Y-2.4646
X5.4713Y-2.4646
X5.5713Y-2.4646
X5.6713Y-2.4646
X5.7713Y-2.4646
X5.8713Y-2.4646
T4
X2.0563Y-3.0917
X2.1563Y-3.0917
X2.765Y-3.0917
X2.865Y-3.0917
T5
X1.6713Y-2.8996
X1.6713Y-2.9996
X1.6713Y-3.0996
X1.6713Y-3.1996
X1.6713Y-3.2996
X1.6713Y-3.3996
X1.7713Y-2.8996
X1.7713Y-2.9996
X1.7713Y-3.0996
X1.7713Y-3.1996
X1.7713Y-3.2996
X1.7713Y-3.3996
T6
X3.3858Y-2.4843
X3.3858Y-3.815
X6.4567Y-2.4843
X6.4567Y-3.815
T7
X7.874Y-2.5197
X1.9685Y-2.5197
X7.874Y-3.7795
X1.9685Y-3.7795
T0
M30
